<?xml version="1.0" standalone="no"?>
<!DOCTYPE svg PUBLIC "-//W3C//DTD SVG 20010904//EN"
 "http://www.w3.org/TR/2001/REC-SVG-20010904/DTD/svg10.dtd">
<svg class="parallax__arrow-header1" version="1.0" xmlns="http://www.w3.org/2000/svg"
 width="600.000000pt" height="180.000000pt" viewBox="0 0 600.000000 180.000000"
 preserveAspectRatio="xMidYMid meet">

<g transform="translate(0.000000,180.000000) scale(0.100000,-0.100000)"
fill="#846743" stroke="none">
<path d="M4263 1620 c-50 -20 -58 -92 -15 -132 15 -14 224 -138 466 -274 l438
-249 -2331 -5 -2330 -5 -23 -22 c-29 -29 -28 -87 1 -117 l22 -21 2332 -5 2332
-5 -215 -124 c-118 -68 -296 -171 -395 -228 -99 -57 -188 -113 -197 -124 -41
-49 -5 -129 58 -129 19 0 49 7 67 16 130 67 1047 601 1065 620 14 16 22 38 22
59 0 21 -8 43 -22 59 -19 20 -1026 599 -1176 675 -44 23 -64 25 -99 11z"/>
</g>
</svg>
